<?xml version="1.0" encoding="UTF-8"?>
<svg fill="#EB2323" id="Calque_2" data-name="Calque 2" xmlns="http://www.w3.org/2000/svg" viewBox="0 0 572.97 294.79">
  <g id="Calque_1-2" data-name="Calque 1">
    <g>
      <path d="M554.36,19v47.75c0,1.22-.56,2.36-1.53,3.11l-99.59,76.89c-2.96,2.29-1.34,7.03,2.4,7.03h111.62c2.17,0,3.92,1.76,3.92,3.92v45.18c0,2.17-1.76,3.92-3.92,3.92h-194.57c-2.17,0-3.92-1.76-3.92-3.92v-50.69c0-1.22.57-2.38,1.54-3.12l96.8-73.92c2.98-2.28,1.37-7.04-2.38-7.04h-92.07c-1.99-.32-3.36-1.07-3.48-2.12-9.36-31.59-23.43-45.18-23.43-45.18-1.35-2.61.54-5.73,3.48-5.73h201.2c2.17,0,3.92,1.76,3.92,3.92Z"/>
      <path d="M569.05,218.92h-209.88c-2.17,0-3.93-1.76-3.93-3.92v-122.2C355.24,31.06,314.32,0,269.64,0c-29.19,0-55.66,12.39-71.2,37.08-13.91-18.47-38.47-31.4-76.09-31.4H27.04c-2.17,0-3.93,1.76-3.93,3.92v97.45c0,2.17-1.75,3.93-3.92,3.93H3.93c-2.17,0-3.93,1.75-3.93,3.92v43.29c0,2.16,1.76,3.92,3.93,3.92h15.26c2.17,0,3.92,1.76,3.92,3.92v100.86c0,2.17,1.76,3.92,3.93,3.92h159.8c.67.53,1.09,1.31,1.09,2.19v17.87c0,2.16,1.76,3.92,3.92,3.92h43.29c2.17,0,3.93-1.76,3.93-3.92v-16.55c0-1.93,1.57-3.51,3.51-3.51h56.61c1.63,0,2.94,1.32,2.94,2.95v17.11c0,2.16,1.76,3.92,3.93,3.92h43.28c2.17,0,3.93-1.76,3.93-3.92v-16.44c0-2,1.62-3.62,3.62-3.62h212.16c2.17,0,3.92-1.75,3.92-3.92v-44.04c0-2.17-1.75-3.93-3.92-3.93ZM77.27,62.25c0-2.17,1.76-3.92,3.93-3.92h41.15c23.85,0,33.33,11.37,33.33,26.13s-9.48,26.52-32.2,26.52h-42.28c-2.17,0-3.93-1.76-3.93-3.93v-44.8ZM127.65,217.78h-46.45c-2.17,0-3.93-1.75-3.93-3.92v-47.83c0-2.16,1.76-3.92,3.93-3.92h47.96c23.11,0,33.33,12.5,33.33,28.03s-10.22,27.64-34.84,27.64ZM298.42,215c0,2.17-1.76,3.92-3.92,3.92h-49.73c-2.16,0-3.92-1.75-3.92-3.92v-122.2c0-29.55,12.88-39.77,28.79-39.77s28.78,10.22,28.78,39.77v122.2Z"/>
    </g>
  </g>
</svg>